ply
format ascii 1.0
element vertex 201
property double x
property double y
property double z
element face 360
property list uchar int vertex_index
property uchar red
property uchar green
property uchar blue
end_header
0.000000 1.000000 12.000000
0.618034 1.000000 11.902113
0.587785 1.190983 11.902113
1.175571 1.000000 11.618034
1.118034 1.363271 11.618034
1.618034 1.000000 11.175571
1.538842 1.500000 11.175571
1.902113 1.000000 10.618034
1.809017 1.587785 10.618034
2.000000 1.000000 10.000000
1.902113 1.618034 10.000000
1.902113 1.000000 9.381966
1.809017 1.587785 9.381966
1.618034 1.000000 8.824429
1.538842 1.500000 8.824429
1.175571 1.000000 8.381966
1.118034 1.363271 8.381966
0.618034 1.000000 8.097887
0.587785 1.190983 8.097887
0.000000 1.000000 8.000000
0.500000 1.363271 11.902113
0.951057 1.690983 11.618034
1.309017 1.951057 11.175571
1.538842 2.118034 10.618034
1.618034 2.175571 10.000000
1.538842 2.118034 9.381966
1.309017 1.951057 8.824429
0.951057 1.690983 8.381966
0.500000 1.363271 8.097887
0.000000 1.000000 8.000000
0.363271 1.500000 11.902113
0.690983 1.951057 11.618034
0.951057 2.309017 11.175571
1.118034 2.538842 10.618034
1.175571 2.618034 10.000000
1.118034 2.538842 9.381966
0.951057 2.309017 8.824429
0.690983 1.951057 8.381966
0.363271 1.500000 8.097887
0.000000 1.000000 8.000000
0.190983 1.587785 11.902113
0.363271 2.118034 11.618034
0.500000 2.538842 11.175571
0.587785 2.809017 10.618034
0.618034 2.902113 10.000000
0.587785 2.809017 9.381966
0.500000 2.538842 8.824429
0.363271 2.118034 8.381966
0.190983 1.587785 8.097887
0.000000 1.000000 8.000000
0.000000 1.618034 11.902113
0.000000 2.175571 11.618034
0.000000 2.618034 11.175571
0.000000 2.902113 10.618034
0.000000 3.000000 10.000000
0.000000 2.902113 9.381966
0.000000 2.618034 8.824429
0.000000 2.175571 8.381966
0.000000 1.618034 8.097887
0.000000 1.000000 8.000000
-0.190983 1.587785 11.902113
-0.363271 2.118034 11.618034
-0.500000 2.538842 11.175571
-0.587785 2.809017 10.618034
-0.618034 2.902113 10.000000
-0.587785 2.809017 9.381966
-0.500000 2.538842 8.824429
-0.363271 2.118034 8.381966
-0.190983 1.587785 8.097887
0.000000 1.000000 8.000000
-0.363271 1.500000 11.902113
-0.690983 1.951057 11.618034
-0.951057 2.309017 11.175571
-1.118034 2.538842 10.618034
-1.175571 2.618034 10.000000
-1.118034 2.538842 9.381966
-0.951057 2.309017 8.824429
-0.690983 1.951057 8.381966
-0.363271 1.500000 8.097887
-0.000000 1.000000 8.000000
-0.500000 1.363271 11.902113
-0.951057 1.690983 11.618034
-1.309017 1.951057 11.175571
-1.538842 2.118034 10.618034
-1.618034 2.175571 10.000000
-1.538842 2.118034 9.381966
-1.309017 1.951057 8.824429
-0.951057 1.690983 8.381966
-0.500000 1.363271 8.097887
-0.000000 1.000000 8.000000
-0.587785 1.190983 11.902113
-1.118034 1.363271 11.618034
-1.538842 1.500000 11.175571
-1.809017 1.587785 10.618034
-1.902113 1.618034 10.000000
-1.809017 1.587785 9.381966
-1.538842 1.500000 8.824429
-1.118034 1.363271 8.381966
-0.587785 1.190983 8.097887
-0.000000 1.000000 8.000000
-0.618034 1.000000 11.902113
-1.175571 1.000000 11.618034
-1.618034 1.000000 11.175571
-1.902113 1.000000 10.618034
-2.000000 1.000000 10.000000
-1.902113 1.000000 9.381966
-1.618034 1.000000 8.824429
-1.175571 1.000000 8.381966
-0.618034 1.000000 8.097887
-0.000000 1.000000 8.000000
-0.587785 0.809017 11.902113
-1.118034 0.636729 11.618034
-1.538842 0.500000 11.175571
-1.809017 0.412215 10.618034
-1.902113 0.381966 10.000000
-1.809017 0.412215 9.381966
-1.538842 0.500000 8.824429
-1.118034 0.636729 8.381966
-0.587785 0.809017 8.097887
-0.000000 1.000000 8.000000
-0.500000 0.636729 11.902113
-0.951057 0.309017 11.618034
-1.309017 0.048943 11.175571
-1.538842 -0.118034 10.618034
-1.618034 -0.175571 10.000000
-1.538842 -0.118034 9.381966
-1.309017 0.048943 8.824429
-0.951057 0.309017 8.381966
-0.500000 0.636729 8.097887
-0.000000 1.000000 8.000000
-0.363271 0.500000 11.902113
-0.690983 0.048943 11.618034
-0.951057 -0.309017 11.175571
-1.118034 -0.538842 10.618034
-1.175571 -0.618034 10.000000
-1.118034 -0.538842 9.381966
-0.951057 -0.309017 8.824429
-0.690983 0.048943 8.381966
-0.363271 0.500000 8.097887
-0.000000 1.000000 8.000000
-0.190983 0.412215 11.902113
-0.363271 -0.118034 11.618034
-0.500000 -0.538842 11.175571
-0.587785 -0.809017 10.618034
-0.618034 -0.902113 10.000000
-0.587785 -0.809017 9.381966
-0.500000 -0.538842 8.824429
-0.363271 -0.118034 8.381966
-0.190983 0.412215 8.097887
-0.000000 1.000000 8.000000
-0.000000 0.381966 11.902113
-0.000000 -0.175571 11.618034
-0.000000 -0.618034 11.175571
-0.000000 -0.902113 10.618034
-0.000000 -1.000000 10.000000
-0.000000 -0.902113 9.381966
-0.000000 -0.618034 8.824429
-0.000000 -0.175571 8.381966
-0.000000 0.381966 8.097887
-0.000000 1.000000 8.000000
0.190983 0.412215 11.902113
0.363271 -0.118034 11.618034
0.500000 -0.538842 11.175571
0.587785 -0.809017 10.618034
0.618034 -0.902113 10.000000
0.587785 -0.809017 9.381966
0.500000 -0.538842 8.824429
0.363271 -0.118034 8.381966
0.190983 0.412215 8.097887
-0.000000 1.000000 8.000000
0.363271 0.500000 11.902113
0.690983 0.048943 11.618034
0.951057 -0.309017 11.175571
1.118034 -0.538842 10.618034
1.175571 -0.618034 10.000000
1.118034 -0.538842 9.381966
0.951057 -0.309017 8.824429
0.690983 0.048943 8.381966
0.363271 0.500000 8.097887
0.000000 1.000000 8.000000
0.500000 0.636729 11.902113
0.951057 0.309017 11.618034
1.309017 0.048943 11.175571
1.538842 -0.118034 10.618034
1.618034 -0.175571 10.000000
1.538842 -0.118034 9.381966
1.309017 0.048943 8.824429
0.951057 0.309017 8.381966
0.500000 0.636729 8.097887
0.000000 1.000000 8.000000
0.587785 0.809017 11.902113
1.118034 0.636729 11.618034
1.538842 0.500000 11.175571
1.809017 0.412215 10.618034
1.902113 0.381966 10.000000
1.809017 0.412215 9.381966
1.538842 0.500000 8.824429
1.118034 0.636729 8.381966
0.587785 0.809017 8.097887
0.000000 1.000000 8.000000
0.000000 1.000000 8.000000
3 0 1 2 255 255 255
3 1 3 4 255 255 255
3 4 2 1 255 255 255
3 3 5 6 255 255 255
3 6 4 3 255 255 255
3 5 7 8 255 255 255
3 8 6 5 255 255 255
3 7 9 10 255 255 255
3 10 8 7 255 255 255
3 9 11 12 255 255 255
3 12 10 9 255 255 255
3 11 13 14 255 255 255
3 14 12 11 255 255 255
3 13 15 16 255 255 255
3 16 14 13 255 255 255
3 15 17 18 255 255 255
3 18 16 15 255 255 255
3 17 19 18 255 255 255
3 0 2 20 255 255 255
3 2 4 21 255 255 255
3 21 20 2 255 255 255
3 4 6 22 255 255 255
3 22 21 4 255 255 255
3 6 8 23 255 255 255
3 23 22 6 255 255 255
3 8 10 24 255 255 255
3 24 23 8 255 255 255
3 10 12 25 255 255 255
3 25 24 10 255 255 255
3 12 14 26 255 255 255
3 26 25 12 255 255 255
3 14 16 27 255 255 255
3 27 26 14 255 255 255
3 16 18 28 255 255 255
3 28 27 16 255 255 255
3 18 29 28 255 255 255
3 0 20 30 255 255 255
3 20 21 31 255 255 255
3 31 30 20 255 255 255
3 21 22 32 255 255 255
3 32 31 21 255 255 255
3 22 23 33 255 255 255
3 33 32 22 255 255 255
3 23 24 34 255 255 255
3 34 33 23 255 255 255
3 24 25 35 255 255 255
3 35 34 24 255 255 255
3 25 26 36 255 255 255
3 36 35 25 255 255 255
3 26 27 37 255 255 255
3 37 36 26 255 255 255
3 27 28 38 255 255 255
3 38 37 27 255 255 255
3 28 39 38 255 255 255
3 0 30 40 255 255 255
3 30 31 41 255 255 255
3 41 40 30 255 255 255
3 31 32 42 255 255 255
3 42 41 31 255 255 255
3 32 33 43 255 255 255
3 43 42 32 255 255 255
3 33 34 44 255 255 255
3 44 43 33 255 255 255
3 34 35 45 255 255 255
3 45 44 34 255 255 255
3 35 36 46 255 255 255
3 46 45 35 255 255 255
3 36 37 47 255 255 255
3 47 46 36 255 255 255
3 37 38 48 255 255 255
3 48 47 37 255 255 255
3 38 49 48 255 255 255
3 0 40 50 255 255 255
3 40 41 51 255 255 255
3 51 50 40 255 255 255
3 41 42 52 255 255 255
3 52 51 41 255 255 255
3 42 43 53 255 255 255
3 53 52 42 255 255 255
3 43 44 54 255 255 255
3 54 53 43 255 255 255
3 44 45 55 255 255 255
3 55 54 44 255 255 255
3 45 46 56 255 255 255
3 56 55 45 255 255 255
3 46 47 57 255 255 255
3 57 56 46 255 255 255
3 47 48 58 255 255 255
3 58 57 47 255 255 255
3 48 59 58 255 255 255
3 0 50 60 255 255 255
3 50 51 61 255 255 255
3 61 60 50 255 255 255
3 51 52 62 255 255 255
3 62 61 51 255 255 255
3 52 53 63 255 255 255
3 63 62 52 255 255 255
3 53 54 64 255 255 255
3 64 63 53 255 255 255
3 54 55 65 255 255 255
3 65 64 54 255 255 255
3 55 56 66 255 255 255
3 66 65 55 255 255 255
3 56 57 67 255 255 255
3 67 66 56 255 255 255
3 57 58 68 255 255 255
3 68 67 57 255 255 255
3 58 69 68 255 255 255
3 0 60 70 255 255 255
3 60 61 71 255 255 255
3 71 70 60 255 255 255
3 61 62 72 255 255 255
3 72 71 61 255 255 255
3 62 63 73 255 255 255
3 73 72 62 255 255 255
3 63 64 74 255 255 255
3 74 73 63 255 255 255
3 64 65 75 255 255 255
3 75 74 64 255 255 255
3 65 66 76 255 255 255
3 76 75 65 255 255 255
3 66 67 77 255 255 255
3 77 76 66 255 255 255
3 67 68 78 255 255 255
3 78 77 67 255 255 255
3 68 79 78 255 255 255
3 0 70 80 255 255 255
3 70 71 81 255 255 255
3 81 80 70 255 255 255
3 71 72 82 255 255 255
3 82 81 71 255 255 255
3 72 73 83 255 255 255
3 83 82 72 255 255 255
3 73 74 84 255 255 255
3 84 83 73 255 255 255
3 74 75 85 255 255 255
3 85 84 74 255 255 255
3 75 76 86 255 255 255
3 86 85 75 255 255 255
3 76 77 87 255 255 255
3 87 86 76 255 255 255
3 77 78 88 255 255 255
3 88 87 77 255 255 255
3 78 89 88 255 255 255
3 0 80 90 255 255 255
3 80 81 91 255 255 255
3 91 90 80 255 255 255
3 81 82 92 255 255 255
3 92 91 81 255 255 255
3 82 83 93 255 255 255
3 93 92 82 255 255 255
3 83 84 94 255 255 255
3 94 93 83 255 255 255
3 84 85 95 255 255 255
3 95 94 84 255 255 255
3 85 86 96 255 255 255
3 96 95 85 255 255 255
3 86 87 97 255 255 255
3 97 96 86 255 255 255
3 87 88 98 255 255 255
3 98 97 87 255 255 255
3 88 99 98 255 255 255
3 0 90 100 255 255 255
3 90 91 101 255 255 255
3 101 100 90 255 255 255
3 91 92 102 255 255 255
3 102 101 91 255 255 255
3 92 93 103 255 255 255
3 103 102 92 255 255 255
3 93 94 104 255 255 255
3 104 103 93 255 255 255
3 94 95 105 255 255 255
3 105 104 94 255 255 255
3 95 96 106 255 255 255
3 106 105 95 255 255 255
3 96 97 107 255 255 255
3 107 106 96 255 255 255
3 97 98 108 255 255 255
3 108 107 97 255 255 255
3 98 109 108 255 255 255
3 0 100 110 255 255 255
3 100 101 111 255 255 255
3 111 110 100 255 255 255
3 101 102 112 255 255 255
3 112 111 101 255 255 255
3 102 103 113 255 255 255
3 113 112 102 255 255 255
3 103 104 114 255 255 255
3 114 113 103 255 255 255
3 104 105 115 255 255 255
3 115 114 104 255 255 255
3 105 106 116 255 255 255
3 116 115 105 255 255 255
3 106 107 117 255 255 255
3 117 116 106 255 255 255
3 107 108 118 255 255 255
3 118 117 107 255 255 255
3 108 119 118 255 255 255
3 0 110 120 255 255 255
3 110 111 121 255 255 255
3 121 120 110 255 255 255
3 111 112 122 255 255 255
3 122 121 111 255 255 255
3 112 113 123 255 255 255
3 123 122 112 255 255 255
3 113 114 124 255 255 255
3 124 123 113 255 255 255
3 114 115 125 255 255 255
3 125 124 114 255 255 255
3 115 116 126 255 255 255
3 126 125 115 255 255 255
3 116 117 127 255 255 255
3 127 126 116 255 255 255
3 117 118 128 255 255 255
3 128 127 117 255 255 255
3 118 129 128 255 255 255
3 0 120 130 255 255 255
3 120 121 131 255 255 255
3 131 130 120 255 255 255
3 121 122 132 255 255 255
3 132 131 121 255 255 255
3 122 123 133 255 255 255
3 133 132 122 255 255 255
3 123 124 134 255 255 255
3 134 133 123 255 255 255
3 124 125 135 255 255 255
3 135 134 124 255 255 255
3 125 126 136 255 255 255
3 136 135 125 255 255 255
3 126 127 137 255 255 255
3 137 136 126 255 255 255
3 127 128 138 255 255 255
3 138 137 127 255 255 255
3 128 139 138 255 255 255
3 0 130 140 255 255 255
3 130 131 141 255 255 255
3 141 140 130 255 255 255
3 131 132 142 255 255 255
3 142 141 131 255 255 255
3 132 133 143 255 255 255
3 143 142 132 255 255 255
3 133 134 144 255 255 255
3 144 143 133 255 255 255
3 134 135 145 255 255 255
3 145 144 134 255 255 255
3 135 136 146 255 255 255
3 146 145 135 255 255 255
3 136 137 147 255 255 255
3 147 146 136 255 255 255
3 137 138 148 255 255 255
3 148 147 137 255 255 255
3 138 149 148 255 255 255
3 0 140 150 255 255 255
3 140 141 151 255 255 255
3 151 150 140 255 255 255
3 141 142 152 255 255 255
3 152 151 141 255 255 255
3 142 143 153 255 255 255
3 153 152 142 255 255 255
3 143 144 154 255 255 255
3 154 153 143 255 255 255
3 144 145 155 255 255 255
3 155 154 144 255 255 255
3 145 146 156 255 255 255
3 156 155 145 255 255 255
3 146 147 157 255 255 255
3 157 156 146 255 255 255
3 147 148 158 255 255 255
3 158 157 147 255 255 255
3 148 159 158 255 255 255
3 0 150 160 255 255 255
3 150 151 161 255 255 255
3 161 160 150 255 255 255
3 151 152 162 255 255 255
3 162 161 151 255 255 255
3 152 153 163 255 255 255
3 163 162 152 255 255 255
3 153 154 164 255 255 255
3 164 163 153 255 255 255
3 154 155 165 255 255 255
3 165 164 154 255 255 255
3 155 156 166 255 255 255
3 166 165 155 255 255 255
3 156 157 167 255 255 255
3 167 166 156 255 255 255
3 157 158 168 255 255 255
3 168 167 157 255 255 255
3 158 169 168 255 255 255
3 0 160 170 255 255 255
3 160 161 171 255 255 255
3 171 170 160 255 255 255
3 161 162 172 255 255 255
3 172 171 161 255 255 255
3 162 163 173 255 255 255
3 173 172 162 255 255 255
3 163 164 174 255 255 255
3 174 173 163 255 255 255
3 164 165 175 255 255 255
3 175 174 164 255 255 255
3 165 166 176 255 255 255
3 176 175 165 255 255 255
3 166 167 177 255 255 255
3 177 176 166 255 255 255
3 167 168 178 255 255 255
3 178 177 167 255 255 255
3 168 179 178 255 255 255
3 0 170 180 255 255 255
3 170 171 181 255 255 255
3 181 180 170 255 255 255
3 171 172 182 255 255 255
3 182 181 171 255 255 255
3 172 173 183 255 255 255
3 183 182 172 255 255 255
3 173 174 184 255 255 255
3 184 183 173 255 255 255
3 174 175 185 255 255 255
3 185 184 174 255 255 255
3 175 176 186 255 255 255
3 186 185 175 255 255 255
3 176 177 187 255 255 255
3 187 186 176 255 255 255
3 177 178 188 255 255 255
3 188 187 177 255 255 255
3 178 189 188 255 255 255
3 0 180 190 255 255 255
3 180 181 191 255 255 255
3 191 190 180 255 255 255
3 181 182 192 255 255 255
3 192 191 181 255 255 255
3 182 183 193 255 255 255
3 193 192 182 255 255 255
3 183 184 194 255 255 255
3 194 193 183 255 255 255
3 184 185 195 255 255 255
3 195 194 184 255 255 255
3 185 186 196 255 255 255
3 196 195 185 255 255 255
3 186 187 197 255 255 255
3 197 196 186 255 255 255
3 187 188 198 255 255 255
3 198 197 187 255 255 255
3 188 199 198 255 255 255
3 0 190 1 255 255 255
3 190 191 3 255 255 255
3 3 1 190 255 255 255
3 191 192 5 255 255 255
3 5 3 191 255 255 255
3 192 193 7 255 255 255
3 7 5 192 255 255 255
3 193 194 9 255 255 255
3 9 7 193 255 255 255
3 194 195 11 255 255 255
3 11 9 194 255 255 255
3 195 196 13 255 255 255
3 13 11 195 255 255 255
3 196 197 15 255 255 255
3 15 13 196 255 255 255
3 197 198 17 255 255 255
3 17 15 197 255 255 255
3 198 200 17 255 255 255
