ply
format ascii 1.0
element vertex 8
property double x
property double y
property double z
element face 12
property list uchar int vertex_index
property uchar red
property uchar green
property uchar blue
end_header
1.000000 -0.000000 -0.000000
1.000000 -0.000000 1.000000
-0.000000 -0.000000 1.000000
-0.000000 -0.000000 -0.000000
-0.000000 1.000000 -0.000000
-0.000000 1.000000 1.000000
1.000000 1.000000 1.000000
1.000000 1.000000 -0.000000
3 0 1 2 255 255 255
3 2 3 0 255 255 255
3 4 3 2 255 255 255
3 2 5 4 255 255 255
3 2 1 6 255 255 255
3 6 5 2 255 255 255
3 4 7 0 255 255 255
3 0 3 4 255 255 255
3 0 7 6 255 255 255
3 6 1 0 255 255 255
3 6 7 4 255 255 255
3 4 5 6 255 255 255
